<svg width="577" height="218" viewBox="0 0 577 218" fill="none" xmlns="http://www.w3.org/2000/svg">
<g filter="url(#filter0_d_33_17)">
<circle cx="109" cy="105" r="105" fill="#233E67"/>
</g>
<g filter="url(#filter1_d_33_17)">
<path d="M103.142 137.132C99.5887 137.132 97.0467 136.121 95.516 134.098C93.9853 132.021 93.22 128.987 93.22 124.996C93.22 121.005 94.5047 111.821 97.074 97.444H95.762C92.4273 101.817 89.6667 107.038 87.48 113.106C85.2933 119.174 83.954 124.641 83.462 129.506C80.7833 132.021 77.6947 133.278 74.196 133.278C72.7747 133.278 71.5173 132.786 70.424 131.802C69.3853 130.763 68.3467 128.987 67.308 126.472C65.2853 121.388 63.8367 111.712 62.962 97.444H61.65C58.9713 109.197 57.632 117.479 57.632 122.29C57.632 127.101 58.452 130.818 60.092 133.442C56.812 135.902 53.3953 137.132 49.842 137.132C46.2887 137.132 43.7467 136.121 42.216 134.098C40.6853 132.021 39.92 128.959 39.92 124.914C39.92 120.814 41.642 109.252 45.086 90.228L40.74 81.454C46.9173 77.4633 52.548 75.468 57.632 75.468C59.8733 75.468 61.7593 75.714 63.29 76.206C64.8753 76.6433 66.3787 77.518 67.8 78.83C69.276 80.142 70.4787 81.9733 71.408 84.324C73.54 89.6267 75.0707 97.362 76 107.53H76.984C79.8267 99.166 83.7627 91.9773 88.792 85.964C91.5253 82.7387 94.778 80.1967 98.55 78.338C102.377 76.4793 106.504 75.55 110.932 75.55C115.141 75.55 117.246 78.092 117.246 83.176C117.246 84.8707 116.18 91.1847 114.048 102.118C111.971 112.997 110.932 119.475 110.932 121.552C110.932 126.855 111.752 130.818 113.392 133.442C110.112 135.902 106.695 137.132 103.142 137.132ZM134.723 137.132C131.224 137.132 128.71 136.121 127.179 134.098C125.648 132.021 124.883 128.959 124.883 124.914C124.883 120.814 126.605 109.252 130.049 90.228L125.703 81.454C131.88 77.4633 137.511 75.468 142.595 75.468C145.984 75.468 148.007 77.108 148.663 80.388C154.294 77.1627 159.815 75.55 165.227 75.55C168.78 75.55 171.896 76.37 174.575 78.01C177.746 79.9233 179.331 83.2307 179.331 87.932C179.331 95.6947 175.04 101.325 166.457 104.824C175.204 106.355 179.577 111.247 179.577 119.502C179.577 124.859 177.363 129.123 172.935 132.294C168.507 135.465 163.532 137.05 158.011 137.05C152.544 137.05 148.144 135.902 144.809 133.606C141.584 135.957 138.222 137.132 134.723 137.132ZM160.635 117.698C160.635 115.129 159.87 113.243 158.339 112.04C156.863 110.837 154.868 110.236 152.353 110.236C149.838 110.236 147.023 110.755 143.907 111.794C143.032 116.441 142.595 120.404 142.595 123.684C145.274 124.941 148.062 125.57 150.959 125.57C153.856 125.57 156.18 124.887 157.929 123.52C159.733 122.153 160.635 120.213 160.635 117.698ZM155.305 86.374C153.173 86.374 150.877 86.784 148.417 87.604C148.089 89.736 147.078 95.2027 145.383 104.004C149.92 103.676 153.774 102.583 156.945 100.724C160.116 98.8107 161.701 96.0773 161.701 92.524C161.701 88.424 159.569 86.374 155.305 86.374Z" fill="#A288E3"/>
</g>
<g filter="url(#filter2_d_33_17)">
<path d="M285.86 128.56C283.26 128.56 281.4 127.82 280.28 126.34C279.16 124.82 278.6 122.6 278.6 119.68C278.6 116.76 279.54 110.04 281.42 99.52H280.46C278.02 102.72 276 106.54 274.4 110.98C272.8 115.42 271.82 119.42 271.46 122.98C269.5 124.82 267.24 125.74 264.68 125.74C263.64 125.74 262.72 125.38 261.92 124.66C261.16 123.9 260.4 122.6 259.64 120.76C258.16 117.04 257.1 109.96 256.46 99.52H255.5C253.54 108.12 252.56 114.18 252.56 117.7C252.56 121.22 253.16 123.94 254.36 125.86C251.96 127.66 249.46 128.56 246.86 128.56C244.26 128.56 242.4 127.82 241.28 126.34C240.16 124.82 239.6 122.58 239.6 119.62C239.6 116.62 240.86 108.16 243.38 94.24L240.2 87.82C244.72 84.9 248.84 83.44 252.56 83.44C254.2 83.44 255.58 83.62 256.7 83.98C257.86 84.3 258.96 84.94 260 85.9C261.08 86.86 261.96 88.2 262.64 89.92C264.2 93.8 265.32 99.46 266 106.9H266.72C268.8 100.78 271.68 95.52 275.36 91.12C277.36 88.76 279.74 86.9 282.5 85.54C285.3 84.18 288.32 83.5 291.56 83.5C294.64 83.5 296.18 85.36 296.18 89.08C296.18 90.32 295.4 94.94 293.84 102.94C292.32 110.9 291.56 115.64 291.56 117.16C291.56 121.04 292.16 123.94 293.36 125.86C290.96 127.66 288.46 128.56 285.86 128.56ZM318.688 125.8C316.808 126.48 314.928 126.82 313.048 126.82C311.168 126.82 309.588 126.26 308.308 125.14C307.028 124.02 306.288 122.5 306.088 120.58C305.888 118.66 305.708 115.88 305.548 112.24C305.388 108.56 305.228 105.96 305.068 104.44C304.548 99.36 302.948 95.74 300.268 93.58C302.148 91.86 304.508 91 307.348 91C308.908 91 310.268 91.42 311.428 92.26C312.588 93.06 313.508 94.14 314.188 95.5C314.908 96.82 315.488 98.54 315.928 100.66C316.608 104.18 316.948 108.94 316.948 114.94C316.948 116.42 316.888 118.16 316.768 120.16H320.248C324.368 109.04 326.428 101.46 326.428 97.42C326.428 96.06 326.128 94.78 325.528 93.58C328.328 91.86 330.768 91 332.848 91C336.728 91 338.668 93.24 338.668 97.72C338.668 101.28 337.028 107.54 333.748 116.5C333.148 118.14 332.808 119.1 332.728 119.38C327.648 133.86 320.428 141.1 311.068 141.1C308.228 141.1 305.888 140.48 304.048 139.24C302.208 138.04 301.288 136.44 301.288 134.44C301.288 132.48 302.028 130.42 303.508 128.26C305.428 130.98 307.828 132.34 310.708 132.34C312.348 132.34 313.868 131.8 315.268 130.72C316.708 129.64 317.848 128 318.688 125.8Z" fill="#233E67"/>
<path d="M370.475 128.56C367.915 128.56 366.075 127.82 364.955 126.34C363.835 124.82 363.275 122.58 363.275 119.62C363.275 116.62 364.535 108.16 367.055 94.24L363.875 87.82C368.395 84.9 372.515 83.44 376.235 83.44C378.715 83.44 380.195 84.64 380.675 87.04C384.795 84.68 388.835 83.5 392.795 83.5C395.395 83.5 397.675 84.1 399.635 85.3C401.955 86.7 403.115 89.12 403.115 92.56C403.115 98.24 399.975 102.36 393.695 104.92C400.095 106.04 403.295 109.62 403.295 115.66C403.295 119.58 401.675 122.7 398.435 125.02C395.195 127.34 391.555 128.5 387.515 128.5C383.515 128.5 380.295 127.66 377.855 125.98C375.495 127.7 373.035 128.56 370.475 128.56ZM389.435 114.34C389.435 112.46 388.875 111.08 387.755 110.2C386.675 109.32 385.215 108.88 383.375 108.88C381.535 108.88 379.475 109.26 377.195 110.02C376.555 113.42 376.235 116.32 376.235 118.72C378.195 119.64 380.235 120.1 382.355 120.1C384.475 120.1 386.175 119.6 387.455 118.6C388.775 117.6 389.435 116.18 389.435 114.34ZM385.535 91.42C383.975 91.42 382.295 91.72 380.495 92.32C380.255 93.88 379.515 97.88 378.275 104.32C381.595 104.08 384.415 103.28 386.735 101.92C389.055 100.52 390.215 98.52 390.215 95.92C390.215 92.92 388.655 91.42 385.535 91.42ZM437.965 95.56C440.205 95.56 442.125 96.46 443.725 98.26C445.365 100.06 446.185 102.68 446.185 106.12C446.185 109.52 445.585 112.68 444.385 115.6C443.185 118.48 441.605 120.84 439.645 122.68C437.685 124.52 435.465 125.96 432.985 127C430.505 128 427.965 128.5 425.365 128.5C420.125 128.5 415.985 127.06 412.945 124.18C409.905 121.3 408.385 117.48 408.385 112.72C408.385 106.28 410.445 101.06 414.565 97.06C418.725 93.02 424.005 91 430.405 91C431.845 91 433.285 91.16 434.725 91.48C435.165 92.8 435.405 94.3 435.445 95.98C436.285 95.7 437.125 95.56 437.965 95.56ZM430.585 103.9C430.585 102.78 430.845 101.52 431.365 100.12C431.925 98.72 432.805 97.6 434.005 96.76C428.725 97.88 425.085 100.02 423.085 103.18C421.365 105.9 420.505 108.7 420.505 111.58C420.505 114.46 421.085 116.78 422.245 118.54C423.445 120.26 424.965 121.12 426.805 121.12C430.885 121.12 433.765 118.46 435.445 113.14C432.205 111.14 430.585 108.06 430.585 103.9ZM481.456 95.56C483.696 95.56 485.616 96.46 487.216 98.26C488.856 100.06 489.676 102.68 489.676 106.12C489.676 109.52 489.076 112.68 487.876 115.6C486.676 118.48 485.096 120.84 483.136 122.68C481.176 124.52 478.956 125.96 476.476 127C473.996 128 471.456 128.5 468.856 128.5C463.616 128.5 459.476 127.06 456.436 124.18C453.396 121.3 451.876 117.48 451.876 112.72C451.876 106.28 453.936 101.06 458.056 97.06C462.216 93.02 467.496 91 473.896 91C475.336 91 476.776 91.16 478.216 91.48C478.656 92.8 478.896 94.3 478.936 95.98C479.776 95.7 480.616 95.56 481.456 95.56ZM474.076 103.9C474.076 102.78 474.336 101.52 474.856 100.12C475.416 98.72 476.296 97.6 477.496 96.76C472.216 97.88 468.576 100.02 466.576 103.18C464.856 105.9 463.996 108.7 463.996 111.58C463.996 114.46 464.576 116.78 465.736 118.54C466.936 120.26 468.456 121.12 470.296 121.12C474.376 121.12 477.256 118.46 478.936 113.14C475.696 111.14 474.076 108.06 474.076 103.9ZM501.306 89.68L497.946 84.88C502.946 81.96 506.886 80.5 509.766 80.5C511.406 80.5 512.566 80.84 513.246 81.52C513.926 82.16 514.266 83.26 514.266 84.82C514.266 86.34 514.006 88.48 513.486 91.24C513.006 94 512.346 97.26 511.506 101.02C510.706 104.78 510.126 107.8 509.766 110.08L513.546 106.72C513.906 106.4 514.486 105.9 515.286 105.22C516.126 104.5 516.706 103.98 517.026 103.66C517.386 103.34 517.866 102.9 518.466 102.34C519.066 101.74 519.506 101.24 519.786 100.84C520.066 100.44 520.386 99.98 520.746 99.46C521.306 98.58 521.586 97.6 521.586 96.52C521.586 95.4 521.426 94.42 521.106 93.58C523.946 91.86 526.626 91 529.146 91C530.826 91 532.166 91.54 533.166 92.62C534.166 93.66 534.666 95.18 534.666 97.18C534.666 99.18 533.746 101.2 531.906 103.24C530.106 105.24 527.866 107 525.186 108.52C526.426 112.64 528.026 116.42 529.986 119.86C531.946 123.3 533.586 125.36 534.906 126.04C533.306 127.68 530.826 128.5 527.466 128.5C524.986 128.5 522.886 127.66 521.166 125.98C519.486 124.3 517.986 121.54 516.666 117.7L515.166 113.44L508.986 116.5C508.946 116.94 508.926 117.6 508.926 118.48C508.926 121.8 509.546 124.16 510.786 125.56C507.986 127.52 505.446 128.5 503.166 128.5C500.886 128.5 499.206 127.76 498.126 126.28C497.086 124.76 496.566 122.68 496.566 120.04C496.566 117.4 497.306 112 498.786 103.84C500.266 95.68 501.106 90.96 501.306 89.68ZM559.124 98.98C557.644 99.42 556.464 100.06 555.584 100.9C554.704 101.7 553.924 102.86 553.244 104.38C560.004 105.38 564.764 106.82 567.524 108.7C570.284 110.58 571.664 113.26 571.664 116.74C571.664 118.94 571.044 120.86 569.804 122.5C568.564 124.1 567.004 125.32 565.124 126.16C561.444 127.72 557.824 128.5 554.264 128.5C544.144 128.5 539.084 126.32 539.084 121.96C539.084 119.76 540.064 117.56 542.024 115.36C543.024 116.76 544.524 117.96 546.524 118.96C548.564 119.96 550.544 120.46 552.464 120.46C555.784 120.46 557.784 119 558.464 116.08C552.384 115.36 547.984 114 545.264 112C542.544 110 541.184 107.18 541.184 103.54C541.184 100.66 542.124 98.24 544.004 96.28C545.924 94.32 548.284 92.96 551.084 92.2C553.924 91.4 557.104 91 560.624 91C564.184 91 567.104 91.68 569.384 93.04C571.704 94.36 572.864 95.98 572.864 97.9C572.864 99.82 572.184 101.3 570.824 102.34C569.504 103.38 568.044 103.9 566.444 103.9C564.884 103.9 563.444 103.48 562.124 102.64C560.844 101.8 559.844 100.58 559.124 98.98Z" fill="#A288E3"/>
</g>
<defs>
<filter id="filter0_d_33_17" x="0" y="0" width="218" height="218" filterUnits="userSpaceOnUse" color-interpolation-filters="sRGB">
<feFlood flood-opacity="0" result="BackgroundImageFix"/>
<feColorMatrix in="SourceAlpha" type="matrix" values="0 0 0 0 0 0 0 0 0 0 0 0 0 0 0 0 0 0 127 0" result="hardAlpha"/>
<feOffset dy="4"/>
<feGaussianBlur stdDeviation="2"/>
<feComposite in2="hardAlpha" operator="out"/>
<feColorMatrix type="matrix" values="0 0 0 0 0 0 0 0 0 0 0 0 0 0 0 0 0 0 0.25 0"/>
<feBlend mode="normal" in2="BackgroundImageFix" result="effect1_dropShadow_33_17"/>
<feBlend mode="normal" in="SourceGraphic" in2="effect1_dropShadow_33_17" result="shape"/>
</filter>
<filter id="filter1_d_33_17" x="39.92" y="75.468" width="159.657" height="81.664" filterUnits="userSpaceOnUse" color-interpolation-filters="sRGB">
<feFlood flood-opacity="0" result="BackgroundImageFix"/>
<feColorMatrix in="SourceAlpha" type="matrix" values="0 0 0 0 0 0 0 0 0 0 0 0 0 0 0 0 0 0 127 0" result="hardAlpha"/>
<feOffset dx="10" dy="10"/>
<feGaussianBlur stdDeviation="5"/>
<feComposite in2="hardAlpha" operator="out"/>
<feColorMatrix type="matrix" values="0 0 0 0 0.425 0 0 0 0 0.724 0 0 0 0 1 0 0 0 0.25 0"/>
<feBlend mode="normal" in2="BackgroundImageFix" result="effect1_dropShadow_33_17"/>
<feBlend mode="normal" in="SourceGraphic" in2="effect1_dropShadow_33_17" result="shape"/>
</filter>
<filter id="filter2_d_33_17" x="235.6" y="80.5" width="341.264" height="68.6" filterUnits="userSpaceOnUse" color-interpolation-filters="sRGB">
<feFlood flood-opacity="0" result="BackgroundImageFix"/>
<feColorMatrix in="SourceAlpha" type="matrix" values="0 0 0 0 0 0 0 0 0 0 0 0 0 0 0 0 0 0 127 0" result="hardAlpha"/>
<feOffset dy="4"/>
<feGaussianBlur stdDeviation="2"/>
<feComposite in2="hardAlpha" operator="out"/>
<feColorMatrix type="matrix" values="0 0 0 0 0 0 0 0 0 0 0 0 0 0 0 0 0 0 0.25 0"/>
<feBlend mode="normal" in2="BackgroundImageFix" result="effect1_dropShadow_33_17"/>
<feBlend mode="normal" in="SourceGraphic" in2="effect1_dropShadow_33_17" result="shape"/>
</filter>
</defs>
</svg>
